<svg width="17" height="4" viewBox="0 0 17 4" fill="none" xmlns="http://www.w3.org/2000/svg">
<path fill-rule="evenodd" clip-rule="evenodd" d="M0.166626 2.01603C0.166626 1.09929 0.841473 0.427002 1.70037 0.427002C2.55926 0.427002 3.21366 1.09929 3.21366 2.01603C3.21366 2.93278 2.55926 3.60507 1.70037 3.60507C0.841473 3.60507 0.166626 2.93278 0.166626 2.01603ZM6.97644 2.01603C6.97644 1.09929 7.65129 0.427002 8.51018 0.427002C9.36908 0.427002 10.0235 1.09929 10.0235 2.01603C10.0235 2.93278 9.36908 3.60507 8.51018 3.60507C7.65129 3.60507 6.97644 2.93278 6.97644 2.01603ZM13.8068 2.01603C13.8068 1.09929 14.4612 0.427002 15.3201 0.427002C16.179 0.427002 16.8333 1.09929 16.8333 2.01603C16.8333 2.93278 16.179 3.60507 15.3201 3.60507C14.4612 3.60507 13.8068 2.93278 13.8068 2.01603Z" fill="black" fill-opacity="0.21023"/>
</svg>
